<?xml version="1.0" encoding="UTF-8" standalone="no"?>
<svg
   xmlns:dc="http://purl.org/dc/elements/1.1/"
   xmlns:cc="http://creativecommons.org/ns#"
   xmlns:svg="http://www.w3.org/2000/svg"
   xmlns="http://www.w3.org/2000/svg"
   xmlns:xlink="http://www.w3.org/1999/xlink"
   style="fill-rule:evenodd"
   xml:space="preserve"
   viewBox="0 0 460.79999 457.97035"
   height="457.81012"
   width="460.63876"
   version="1.1">
 <defs><linearGradient
   id="linearGradient3754"><stop
     offset="0"
     style="stop-color:#ffe165;stop-opacity:1" /><stop
     offset="0.32727271"
     style="stop-color:#ff6600;stop-opacity:1" /><stop
     offset="1"
     style="stop-color:#bf0000;stop-opacity:1" />
  </linearGradient><linearGradient
   id="linearGradient2847"><stop
     offset="0"
     style="stop-color:#806600;stop-opacity:1" /><stop
     offset="0.21818182"
     style="stop-color:#693603;stop-opacity:1" /><stop
     offset="1"
     style="stop-color:#530707;stop-opacity:1" />
  </linearGradient><linearGradient
   id="linearGradient2900"><stop
     offset="0"
     style="stop-color:#006137;stop-opacity:1" /><stop
     offset="0.63636363"
     style="stop-color:#006137;stop-opacity:0.36470589" /><stop
     offset="1"
     style="stop-color:#006137;stop-opacity:0" /></linearGradient>
   <radialGradient
   gradientTransform="matrix(0.21945514,0,0,0.21945514,-91.238697,-81.977777)"
   gradientUnits="userSpaceOnUse"
   xlink:href="#linearGradient2900"
   id="radialGradient2906"
   fy="1410.802"
   fx="1410.802"
   r="771.03271"
   cy="1410.802"
   cx="1410.802" /><linearGradient
   gradientTransform="matrix(0.16194278,0,0,0.16194278,-10.100101,-0.83917694)"
   gradientUnits="userSpaceOnUse"
   xlink:href="#linearGradient2847"
   id="linearGradient2268"
   y2="352.69614"
   x2="1460.7534"
   y1="1418.5093"
   x1="1460.7534" /><linearGradient
   gradientTransform="matrix(0.16194278,0,0,0.16194278,-10.100101,-0.83917694)"
   gradientUnits="userSpaceOnUse"
   xlink:href="#linearGradient3754"
   id="linearGradient2277"
   y2="352.99988"
   x2="1417.4907"
   y1="1415.9645"
   x1="1417.4907" />
</defs>
<path
   style="fill:url(#radialGradient2906);fill-opacity:1;fill-rule:nonzero;stroke:none;stroke-width:0.219455"
   d="m 387.3896,227.63002 a 169.02055,169.02055 0 1 1 -338.041109,0 169.02055,169.02055 0 1 1 338.041109,0 z" /><path
   style="fill:#ffdd55;stroke:#1f1a17;stroke-width:0.647771;stroke-linejoin:round"
   d="m 168.36084,105.07142 58.46134,106.2345 -7.28742,17.4898 -17.48982,-7.2874 z" /><path
   style="fill:#ffdd55;stroke:#1f1a17;stroke-width:0.647771;stroke-linejoin:round"
   d="m 270.70867,352.52002 -33.68409,-116.4369 -17.48982,-7.2874 -7.28743,17.4898 z" /><path
   style="fill:#ffdd55;stroke:#1f1a17;stroke-width:0.647771;stroke-linejoin:round"
   d="m 95.810476,279.96962 106.234464,-58.4613 17.48982,7.2874 -7.28743,17.4898 z" /><path
   style="fill:#ffdd55;stroke:#1f1a17;stroke-width:0.647771;stroke-linejoin:round"
   d="m 343.25904,177.62182 -116.43686,33.6841 -7.28742,17.4898 17.48982,7.2874 z" /><path
   style="fill:#aa8800;stroke:#1f1a17;stroke-width:0.647771;stroke-linejoin:round"
   d="m 219.53476,228.79572 51.17391,123.7243 -33.68409,-116.4369 z" /><path
   style="fill:#aa8800;stroke:#1f1a17;stroke-width:0.647771;stroke-linejoin:round"
   d="m 219.53476,228.79572 123.72428,-51.1739 -106.23446,58.4613 z" /><path
   style="fill:none;stroke:#1f1a17;stroke-width:0.647771;stroke-linejoin:round"
   d="m 219.53476,228.79572 19.43313,8.0971" /><path
   style="fill:#aa8800;stroke:#1f1a17;stroke-width:0.647771;stroke-linejoin:round"
   d="m 219.53476,228.79572 -51.17392,-123.7243 58.46134,106.2345 z" /><path
   style="fill:#aa8800;stroke:#1f1a17;stroke-width:0.647771;stroke-linejoin:round"
   d="M 219.53476,228.79572 95.810476,279.96962 212.24733,246.28552 Z" /><path
   style="fill:#ffdd55;stroke:#1f1a17;stroke-width:0.647771;stroke-linejoin:round"
   d="m 95.810476,177.62182 116.436854,33.6841 7.28743,17.4898 -17.48982,7.2874 z" /><path
   style="fill:#ffdd55;stroke:#1f1a17;stroke-width:0.647771;stroke-linejoin:round"
   d="m 343.25904,279.96962 -106.23446,-58.4613 -17.48982,7.2874 7.28742,17.4898 z" /><path
   style="fill:#ffdd55;stroke:#1f1a17;stroke-width:0.647771;stroke-linejoin:round"
   d="m 168.36084,352.52002 33.6841,-116.4369 17.48982,-7.2874 7.28742,17.4898 z" /><path
   style="fill:#ffdd55;stroke:#1f1a17;stroke-width:0.647771;stroke-linejoin:round"
   d="m 270.70867,105.07142 -58.46134,106.2345 7.28743,17.4898 17.48982,-7.2874 z" /><path
   style="fill:#aa8800;stroke:#1f1a17;stroke-width:0.647771;stroke-linejoin:round"
   d="m 219.53476,228.79572 123.72428,51.1739 -106.23446,-58.4613 z" /><path
   style="fill:#aa8800;stroke:#1f1a17;stroke-width:0.647771;stroke-linejoin:round"
   d="m 219.53476,228.79572 51.17391,-123.7243 -33.68409,116.4369 z" /><path
   style="fill:none;stroke:#1f1a17;stroke-width:0.647771;stroke-linejoin:round"
   d="m 219.53476,228.79572 19.43313,-8.0972" /><path
   style="fill:#aa8800;stroke:#1f1a17;stroke-width:0.647771;stroke-linejoin:round"
   d="M 219.53476,228.79572 95.810476,177.62182 212.24733,211.30592 Z" /><path
   style="fill:#aa8800;stroke:#1f1a17;stroke-width:0.647771;stroke-linejoin:round"
   d="m 219.53476,228.79572 -51.17392,123.7243 58.46134,-106.2345 z" /><path
   style="fill:#ffdd55;stroke:#1f1a17;stroke-width:0.647771;stroke-linejoin:round"
   d="m 327.71253,120.61792 -86.47744,108.1778 h -21.70033 v -21.7004 z" /><path
   style="fill:#ffdd55;stroke:#1f1a17;stroke-width:0.647771;stroke-linejoin:round"
   d="m 111.35699,336.97352 108.17777,-86.4775 v -21.7003 h -21.70034 z" /><path
   style="fill:#ffdd55;stroke:#1f1a17;stroke-width:0.647771;stroke-linejoin:round"
   d="m 111.35699,120.61792 108.17777,86.4774 v 21.7004 h -21.70034 z" /><path
   style="fill:#ffdd55;stroke:#1f1a17;stroke-width:0.647771;stroke-linejoin:round"
   d="m 327.71253,336.97352 -86.47744,-108.1778 h -21.70033 v 21.7003 z" /><path
   style="fill:#806600;stroke:#1f1a17;stroke-width:0.647771;stroke-linejoin:round"
   d="m 219.53476,228.79572 -108.17777,108.1778 108.17777,-86.4775 z" /><path
   style="fill:#aa8800;stroke:#1f1a17;stroke-width:0.647771;stroke-linejoin:round"
   d="m 219.53476,228.79572 108.17777,108.1778 -108.17777,-86.4775 z" /><path
   style="fill:#806600;stroke:#1f1a17;stroke-width:0.647771;stroke-linejoin:round"
   d="m 219.53476,228.79572 108.17777,-108.1778 -86.47744,108.1778 z" /><path
   style="fill:#aa8800;stroke:#1f1a17;stroke-width:0.647771;stroke-linejoin:round"
   d="m 219.53476,228.79572 -108.17777,-108.1778 86.47743,108.1778 z" /><path
   style="fill:none;stroke:#1f1a17;stroke-width:0.647771;stroke-linejoin:round"
   d="m 217.4295,229.28152 v 23.9675" /><path
   style="fill:url(#linearGradient2277);fill-opacity:1;stroke:#1f1a17;stroke-width:0.647771;stroke-linejoin:round"
   d="m 219.53476,56.650523 17.16593,154.979197 -17.16593,17.166 -17.16594,-17.166 z" /><path
   style="fill:#fafbfb;stroke:#1f1a17;stroke-width:0.647771;stroke-linejoin:round"
   d="m 219.53476,400.94082 17.16593,-154.9792 -17.16593,-17.1659 -17.16594,17.1659 z" /><path
   style="fill:#f5ff5d;fill-opacity:1;stroke:#1f1a17;stroke-width:0.647771;stroke-linejoin:round"
   d="m 47.389585,228.79572 154.979235,-17.166 17.16594,17.166 -17.16594,17.1659 z" /><path
   style="fill:#ffdd55;stroke:#1f1a17;stroke-width:0.647771;stroke-linejoin:round"
   d="m 391.67993,228.79572 -154.97924,-17.166 -17.16593,17.166 17.16593,17.1659 z" /><path
   style="fill:#969594;stroke:#1f1a17;stroke-width:0.647771;stroke-linejoin:round"
   d="m 219.53476,228.79572 v 172.1451 l 17.16593,-154.9792 z" /><path
   style="fill:#806600;stroke:#1f1a17;stroke-width:0.647771;stroke-linejoin:round"
   d="m 219.53476,228.79572 h 172.14517 l -154.97924,17.1659 z" /><path
   style="fill:none;stroke:#1f1a17;stroke-width:0.647771;stroke-linejoin:round"
   d="m 219.53476,228.79572 19.10924,19.1092" /><path
   style="fill:url(#linearGradient2268);fill-opacity:1;stroke:#1f1a17;stroke-width:0.647771;stroke-linejoin:round"
   d="M 219.53476,228.79572 V 56.650523 l 17.16593,154.979197 z" /><path
   style="fill:#806600;stroke:#1f1a17;stroke-width:0.647771;stroke-linejoin:round"
   d="M 219.53476,228.79572 H 47.389585 l 154.979235,17.1659 z" /><g
   transform="matrix(0.32388556,0,0,0.32388556,-240.20371,-42.450777)"><path
     d="m 1357.9063,285 v -8.10547 q 7.1289,-0.87891 10.1562,-2.73437 3.0273,-1.85547 3.0273,-3.22266 v -93.55469 q -3.125,-2.92969 -6.5429,-4.88281 -3.3203,-1.95313 -6.6406,-2.44141 v -8.10547 h 29.4921 q 1.4649,0 2.3438,0.29297 0.9766,0.19532 1.9531,0.97657 0.9766,0.78125 2.0508,2.34375 1.1719,1.46484 3.0273,4.0039 l 58.3008,80.95703 v -74.41406 q 0,-0.58594 -0.5859,-1.36719 -0.586,-0.8789 -2.1485,-1.66015 -1.4648,-0.87891 -4.0039,-1.66016 -2.539,-0.78125 -6.4453,-1.36719 v -8.10547 h 41.9922 v 8.10547 q -7.0312,0.97657 -10.1562,2.83203 -3.0274,1.85547 -3.0274,3.22266 v 111.81641 q -5.3711,-0.39063 -9.7656,-1.5625 -4.2969,-1.07422 -7.7148,-2.63672 -3.3204,-1.5625 -5.7618,-3.51563 -2.4414,-1.95312 -4.0039,-4.10156 l -56.7383,-78.51562 v 73.33984 q 0,0.58594 0.586,1.46484 0.6836,0.78125 2.2461,1.66016 1.5625,0.78125 4.0039,1.5625 2.539,0.78125 6.3476,1.26953 V 285 Z" /></g><g
   transform="matrix(0.32388556,0,0,0.32388556,-820.73261,-233.46658)"><path
     d="m 2663.9297,1458.3594 q -0.3906,4.1992 -0.8789,9.1797 -0.4883,4.8828 -1.0742,9.4726 -0.586,4.4922 -1.1719,8.0078 -0.4883,3.5157 -0.8789,4.9805 h -95.0195 v -8.1055 q 6.6406,-1.3672 9.8632,-2.9297 3.3203,-1.6601 3.3203,-3.0273 v -94.8242 q 0,-1.1719 -3.125,-2.9297 -3.0273,-1.7578 -10.0585,-3.125 v -8.1055 h 88.4765 l 4.1992,3.418 q -0.1953,2.5391 -0.5859,6.6406 -0.3906,4.1016 -0.9766,8.3985 -0.5859,4.2968 -1.2695,8.1054 -0.5859,3.8086 -1.1719,5.6641 h -8.3008 q -0.4882,-9.082 -2.4414,-14.2578 -1.9531,-5.2735 -5.5664,-5.2735 h -31.8359 v 38.5743 h 38.5742 l 3.5156,3.7109 q -0.7812,1.3672 -1.9531,3.2227 -1.0742,1.8554 -2.3437,3.8085 -1.1719,1.8555 -2.4414,3.418 -1.1719,1.5625 -2.2461,2.3438 -1.4649,-1.4649 -3.2227,-2.4414 -1.6601,-0.9766 -3.9062,-1.6602 -2.1485,-0.6836 -5.1758,-0.9766 -2.9297,-0.2929 -7.0313,-0.2929 h -13.7695 v 41.6992 q 0,1.4648 0.6836,2.6367 0.6836,1.0742 2.832,1.9531 2.1485,0.7813 6.0547,1.2696 3.9063,0.3906 10.3516,0.3906 h 8.6914 q 4.4922,0 7.6172,-1.1719 3.2226,-1.2695 5.664,-3.9062 2.4414,-2.6368 4.3946,-6.7383 2.0507,-4.1016 4.1015,-9.8633 z" /></g><g
   transform="matrix(0.16194278,0,0,0.16194278,-9.1281027,0.78082306)"><path
     d="m 1496.967,2681.8907 q 0,8.789 -2.7344,17.9688 -2.7344,9.1796 -8.2032,18.164 -5.2734,8.789 -13.6718,16.7968 -8.2032,7.8126 -19.5312,13.672 -11.1328,5.8594 -25.1954,9.375 -14.0624,3.5156 -31.25,3.5156 -7.2266,0 -16.7968,-1.3672 -9.5704,-1.3672 -19.5314,-3.9062 -9.9608,-2.3438 -19.5312,-5.8595 -9.375,-3.5155 -16.211,-8.0078 -0.9764,-0.3906 -1.5624,-3.9062 -0.586,-3.711 -0.7812,-9.1798 -0.196,-5.4688 -0.196,-12.3046 0,-6.836 0.586,-13.8672 0.586,-7.2266 1.5624,-14.0626 0.9766,-6.8358 2.3438,-12.3046 l 15.8204,0.9766 q 4.4922,11.5234 10.7422,21.4842 6.4452,9.961 14.2578,17.383 8.0078,7.2264 17.1874,11.5234 9.1798,4.1016 19.1406,4.1016 8.7892,0 16.6016,-2.1486 8.0078,-2.1484 14.0626,-6.4452 6.0546,-4.4922 9.5702,-11.1328 3.5156,-6.836 3.5156,-16.211 0,-11.914 -5.2734,-20.5078 -5.2734,-8.789 -14.0624,-15.4296 -8.5938,-6.836 -19.7266,-12.3048 -11.1328,-5.4688 -22.8516,-10.9374 -11.5234,-5.4688 -22.6562,-11.5236 -11.1328,-6.0546 -19.922,-13.8672 -8.5936,-8.0078 -13.8672,-18.3592 -5.2734,-10.3516 -5.2734,-24.6094 0,-6.0548 2.3438,-13.2814 2.539,-7.2264 7.4218,-14.453 5.0782,-7.2266 12.6954,-13.8672 7.6172,-6.836 17.9688,-11.914 10.3514,-5.2736 23.6328,-8.3986 13.2812,-3.125 29.4922,-3.125 11.1328,0 21.6796,1.3672 10.5468,1.3672 19.5312,3.711 9.1798,2.3438 16.0156,5.664 7.0314,3.3204 10.547,7.2266 0.9766,0.7812 0.3906,3.9062 -0.3906,2.9298 -1.7578,7.0314 -1.3672,4.1014 -3.5156,8.9844 -1.9532,4.6874 -4.297,9.1796 -2.1484,4.2968 -4.2968,7.8124 -2.1484,3.3204 -3.711,4.6876 l -14.8436,-1.1718 q -3.9064,-9.961 -9.375,-16.6016 -5.4688,-6.836 -11.7188,-10.9376 -6.0548,-4.1016 -12.5,-5.664 -6.25,-1.7578 -11.7188,-1.7578 -9.375,0 -16.0156,2.3438 -6.6406,2.3436 -10.9376,6.4452 -4.2968,3.9062 -6.25,9.1798 -1.953,5.078 -1.953,10.5468 0,9.1796 5.2734,16.4062 5.4688,7.2266 14.2578,13.2814 8.789,6.0546 19.9218,11.7186 l 22.8516,11.3282 q 11.7188,5.8594 22.8516,12.6952 11.1328,6.836 19.9218,15.625 8.7892,8.5938 14.0626,19.7266 5.4688,11.1328 5.4688,25.586 z" /></g><g
   transform="matrix(0.32388556,0,0,0.32388556,367.95115,-234.35188)"><path
     d="m 255.7858,1375.0586 q -4.29688,0.8789 -7.12891,1.6602 -2.83203,0.7812 -4.49219,1.5625 -1.66015,0.6835 -2.4414,1.3671 -0.6836,0.6836 -0.78125,1.4649 l -22.36328,103.125 q -0.48829,2.0508 -2.2461,3.6133 -1.75781,1.4648 -4.0039,2.4414 -2.2461,1.0742 -4.58985,1.6601 -2.24609,0.6836 -3.71094,0.9766 l -33.78906,-86.3281 -28.02734,77.6367 q -0.6836,2.0508 -2.53906,3.5156 -1.75782,1.4649 -4.10157,2.4414 -2.24609,1.0742 -4.6875,1.6602 -2.4414,0.6836 -4.39453,1.0742 L 101.0983,1381.8945 q -0.48828,-2.4414 -3.515628,-4.0039 -3.027344,-1.5625 -9.960937,-2.832 v -8.1055 h 49.707035 v 8.1055 q -4.78516,0.4883 -7.42188,1.2695 -2.53906,0.6836 -3.71094,1.5625 -1.17187,0.8789 -1.26953,1.9532 -0.0976,0.9765 0.0977,2.0507 l 15.82031,66.1133 27.44141,-81.0547 h 11.23047 l 32.1289,81.0547 14.84375,-66.8945 q 0.19531,-1.1719 -0.8789,-2.0508 -1.07422,-0.8789 -3.125,-1.5625 -2.05079,-0.6836 -4.88282,-1.2695 -2.83203,-0.586 -6.15234,-1.1719 v -8.1055 h 44.33594 z" /></g><path
   style="fill:#786721;fill-opacity:1;stroke:#1f1a17;stroke-width:0.647771;stroke-linejoin:round"
   d="m 219.53476,400.94082 -17.16594,-154.9792 17.16594,-17.1659 17.16593,17.1659 z" /><path
   style="fill:#ffdd55;fill-opacity:1;stroke:#1f1a17;stroke-width:0.647771;stroke-linejoin:round"
   d="m 219.53476,228.79572 v 172.1451 l -17.16594,-154.9792 z" />
</svg>
